# Blender 4.3.2
# www.blender.org
mtllib PUUKAKSI.mtl
o Puu.046
v -1.557141 -9.887009 -0.288668
v -3.528484 0.713289 4.975215
v -7.437584 0.473602 0.469846
v -6.417421 1.994698 -5.422534
v 8.142757 0.447953 -4.040733
v 2.745643 0.305320 2.361301
v -5.854344 6.190521 4.624748
v -4.254621 13.215860 -1.648647
v 3.166309 12.342636 -3.809862
v 5.339237 6.055852 -0.387389
v 0.061851 5.469321 4.254005
v 2.361841 21.227577 0.984253
v -2.481895 -2.293579 0.706198
v -1.676619 -2.160134 1.815530
v -8.331387 -0.513025 4.018703
v 0.448810 -0.932063 5.579418
v 4.041336 -2.276573 0.668443
v -1.837428 -2.091537 -1.586354
v -9.071006 0.254822 -4.665751
v 4.655836 -1.983744 -1.941824
v 1.927766 0.873431 -4.920196
v 10.172627 -0.788122 -1.904192
v -2.150888 4.217252 6.901006
v 1.617215 3.184830 3.622051
v -7.497467 3.391926 3.529823
v -5.685920 3.424536 5.753500
v -3.426896 10.520290 -3.535106
v -10.385841 5.497233 0.349234
v 7.594070 9.374973 -4.175058
v 0.717212 10.049914 -4.622411
v 3.103573 2.784654 1.198682
v 11.160843 9.272343 -2.324724
v -4.051908 6.514164 6.411551
v -4.104372 14.017282 1.724697
v -0.638159 13.415817 -3.316487
v 7.659586 12.648741 -2.551311
v 2.718874 6.449309 1.942935
v -2.697742 8.758606 2.403371
v 0.426988 9.523207 4.423974
v -1.268495 16.096210 -1.319355
v 2.236552 16.771404 -1.667931
v 5.227140 14.782034 -0.443718
vn -0.7870 -0.1734 0.5921
vn -0.3967 -0.7828 0.4794
vn -0.9577 -0.0804 -0.2763
vn -0.0512 -0.1658 -0.9848
vn 0.7925 -0.5980 0.1195
vn -0.2879 -0.3718 0.8825
vn -0.9643 0.1819 -0.1923
vn -0.4584 0.3424 -0.8202
vn 0.1397 -0.0063 -0.9902
vn 0.5077 0.3046 0.8059
vn -0.1965 -0.4118 0.8898
vn -0.7885 -0.4527 0.4163
vn -0.2134 0.2819 -0.9354
vn 0.4608 0.0150 -0.8874
vn 0.8552 0.1137 0.5057
vn -0.4582 0.8325 0.3114
vn -0.6792 0.7203 -0.1409
vn 0.0064 0.4365 -0.8997
vn 0.6614 0.0133 0.7499
vn 0.6725 -0.0914 0.7344
vn 0.6411 0.1169 0.7585
vn 0.7223 -0.0194 0.6913
vn 0.6656 0.0134 0.7462
vn 0.5656 0.4100 -0.7155
vn 0.5860 0.7993 -0.1327
vn 0.2101 0.4611 -0.8621
vn -0.1814 0.5067 -0.8428
vn -0.1879 0.5580 -0.8083
vn -0.3871 0.4906 -0.7807
vn -0.8150 0.3805 0.4370
vn 0.6115 0.2600 0.7473
vn 0.4297 0.2277 0.8738
vn -0.5685 0.3171 0.7591
vn -0.4207 0.8447 0.3309
vn 0.4475 -0.0777 0.8909
vn 0.6016 0.1954 0.7745
vn 0.8510 -0.0172 0.5248
vn 0.6552 -0.0837 0.7508
vn 0.1789 0.2494 0.9517
vn 0.4322 0.3937 -0.8113
vn 0.2162 0.4304 -0.8764
vn -0.0213 0.3542 -0.9349
vn -0.2143 0.2771 -0.9366
vn -0.3957 0.4419 -0.8051
vn -0.7919 0.6012 -0.1076
vn -0.5897 0.3147 0.7438
vn -0.8488 0.3399 0.4051
vn -0.7056 0.2305 0.6701
vn -0.2994 -0.0447 0.9531
vn 0.4930 0.5514 0.6730
vn 0.0959 0.3804 0.9198
vn 0.4014 -0.0011 0.9159
vn 0.6926 -0.0979 -0.7147
vn 0.0872 0.2488 -0.9646
vn 0.0689 0.0414 -0.9968
vn 0.0655 0.0410 -0.9970
vn -0.6242 0.3102 -0.7171
vn -0.6562 0.4292 -0.6207
vn -0.8298 -0.4802 0.2844
vn -0.7603 0.2052 0.6163
vn -0.7548 0.2377 0.6114
vn -0.0976 -0.3456 0.9333
vn 0.6732 0.2676 0.6893
vn 0.6723 0.1535 0.7242
vn 0.8027 0.0545 0.5939
vn 0.4324 -0.3325 0.8381
vn 0.2118 -0.9755 -0.0596
vn 0.1717 -0.7732 -0.6105
vn 0.0538 -0.6955 -0.7165
vn -0.0251 -0.7328 -0.6800
vn -0.0541 -0.7150 -0.6970
vn 0.1523 -0.5803 -0.8000
vn -0.2452 -0.9573 -0.1533
vn -0.4855 -0.8532 0.1908
vn 0.8098 0.0219 0.5864
vn 0.0387 -0.9562 0.2901
vn 0.1852 -0.2555 0.9489
vn -0.4456 -0.8272 -0.3422
vn -0.1606 -0.9594 0.2320
vn 0.0482 -0.7248 0.6873
vt 0.233774 0.830862
vt 0.241114 0.843575
vt 0.226434 0.843575
vt 0.248455 0.856290
vt 0.255795 0.843575
vt 0.263135 0.856290
vt 0.351219 0.830862
vt 0.358560 0.843575
vt 0.343879 0.843575
vt 0.321858 0.830862
vt 0.329198 0.843575
vt 0.314518 0.843575
vt 0.292497 0.830862
vt 0.299837 0.843575
vt 0.285156 0.843575
vt 0.255795 0.869003
vt 0.219093 0.856290
vt 0.233774 0.856290
vt 0.226434 0.869003
vt 0.336539 0.856290
vt 0.351219 0.856290
vt 0.343879 0.869003
vt 0.307177 0.856290
vt 0.321858 0.856290
vt 0.314518 0.869003
vt 0.277816 0.856290
vt 0.292497 0.856290
vt 0.285156 0.869003
vt 0.241114 0.869003
vt 0.211753 0.869003
vt 0.329198 0.869003
vt 0.299837 0.869003
vt 0.270476 0.869003
vt 0.233774 0.881717
vt 0.248455 0.881717
vt 0.241114 0.894431
vt 0.204412 0.881717
vt 0.219093 0.881717
vt 0.211753 0.894431
vt 0.321858 0.881717
vt 0.336539 0.881717
vt 0.329198 0.894431
vt 0.292497 0.881717
vt 0.307177 0.881717
vt 0.299837 0.894431
vt 0.263135 0.881717
vt 0.277816 0.881717
vt 0.270476 0.894431
vt 0.285156 0.894431
vt 0.277816 0.907145
vt 0.314518 0.894431
vt 0.307177 0.907145
vt 0.343879 0.894431
vt 0.336539 0.907145
vt 0.351219 0.881717
vt 0.226434 0.894431
vt 0.219093 0.907145
vt 0.255795 0.894431
vt 0.248455 0.907145
vt 0.358560 0.869003
vt 0.365900 0.856290
vt 0.270476 0.843575
vt 0.263135 0.830862
s 0
usemtl Color_All
f 1/1/1 14/2/1 13/3/1
f 2/4/2 14/5/2 16/6/2
f 1/7/3 13/8/3 18/9/3
f 1/10/4 18/11/4 20/12/4
f 1/13/5 20/14/5 17/15/5
f 2/4/6 16/6/6 23/16/6
f 3/17/7 15/18/7 25/19/7
f 4/20/8 19/21/8 27/22/8
f 5/23/9 21/24/9 29/25/9
f 6/26/10 22/27/10 31/28/10
f 2/4/11 23/16/11 26/29/11
f 3/17/12 25/19/12 28/30/12
f 4/20/13 27/22/13 30/31/13
f 5/23/14 29/25/14 32/32/14
f 6/26/15 31/28/15 24/33/15
f 7/34/16 33/35/16 38/36/16
f 8/37/17 34/38/17 40/39/17
f 9/40/18 35/41/18 41/42/18
f 10/43/19 36/44/19 42/45/19
f 11/46/20 37/47/20 39/48/20
f 39/48/21 42/49/21 12/50/21
f 39/48/22 37/47/22 42/49/22
f 37/47/23 10/43/23 42/49/23
f 42/45/24 41/51/24 12/52/24
f 42/45/25 36/44/25 41/51/25
f 36/44/26 9/40/26 41/51/26
f 41/42/27 40/53/27 12/54/27
f 41/42/28 35/41/28 40/53/28
f 35/41/29 8/55/29 40/53/29
f 40/39/30 38/56/30 12/57/30
f 40/39/31 34/38/31 38/56/31
f 34/38/32 7/34/32 38/56/32
f 38/36/33 39/58/33 12/59/33
f 38/36/34 33/35/34 39/58/34
f 33/35/35 11/46/35 39/58/35
f 24/33/36 37/47/36 11/46/36
f 24/33/37 31/28/37 37/47/37
f 31/28/38 10/43/38 37/47/38
f 32/32/39 36/44/39 10/43/39
f 32/32/40 29/25/40 36/44/40
f 29/25/41 9/40/41 36/44/41
f 30/31/42 35/41/42 9/40/42
f 30/31/43 27/22/43 35/41/43
f 27/22/44 8/55/44 35/41/44
f 28/30/45 34/38/45 8/37/45
f 28/30/46 25/19/46 34/38/46
f 25/19/47 7/34/47 34/38/47
f 26/29/48 33/35/48 7/34/48
f 26/29/49 23/16/49 33/35/49
f 23/16/50 11/46/50 33/35/50
f 31/28/51 32/32/51 10/43/51
f 31/28/52 22/27/52 32/32/52
f 22/27/53 5/23/53 32/32/53
f 29/25/54 30/31/54 9/40/54
f 29/25/55 21/24/55 30/31/55
f 21/24/56 4/20/56 30/31/56
f 27/22/57 28/60/57 8/55/57
f 27/22/58 19/21/58 28/60/58
f 19/21/59 3/61/59 28/60/59
f 25/19/60 26/29/60 7/34/60
f 25/19/61 15/18/61 26/29/61
f 15/18/62 2/4/62 26/29/62
f 23/16/63 24/33/63 11/46/63
f 23/16/64 16/6/64 24/33/64
f 16/6/65 6/26/65 24/33/65
f 17/15/66 22/27/66 6/26/66
f 17/15/67 20/14/67 22/27/67
f 20/14/68 5/23/68 22/27/68
f 20/12/69 21/24/69 5/23/69
f 20/12/70 18/11/70 21/24/70
f 18/11/71 4/20/71 21/24/71
f 18/9/72 19/21/72 4/20/72
f 18/9/73 13/8/73 19/21/73
f 13/8/74 3/61/74 19/21/74
f 16/6/75 17/62/75 6/26/75
f 16/6/76 14/5/76 17/62/76
f 14/5/77 1/63/77 17/62/77
f 13/3/78 15/18/78 3/17/78
f 13/3/79 14/2/79 15/18/79
f 14/2/80 2/4/80 15/18/80
